<svg width="37" height="40" viewBox="0 0 37 40" fill="none" xmlns="http://www.w3.org/2000/svg">
<mask id="mask0_13_745" style="mask-type:luminance" maskUnits="userSpaceOnUse" x="0" y="0" width="37" height="40">
<path d="M0.333374 0.627045H37V39.6014H0.333374V0.627045Z" fill="white"/>
</mask>
<g mask="url(#mask0_13_745)">
<path d="M12.5557 16.8664V23.3621M9.50012 20.1142H15.6112" stroke="#0B95FF" stroke-width="4" stroke-linecap="round"/>
<path d="M24.7778 17.6783C24.7778 18.109 24.6169 18.5221 24.3304 18.8266C24.0439 19.1312 23.6553 19.3023 23.2501 19.3023C22.8449 19.3023 22.4563 19.1312 22.1698 18.8266C21.8833 18.5221 21.7223 18.109 21.7223 17.6783C21.7223 17.2476 21.8833 16.8346 22.1698 16.53C22.4563 16.2255 22.8449 16.0544 23.2501 16.0544C23.6553 16.0544 24.0439 16.2255 24.3304 16.53C24.6169 16.8346 24.7778 17.2476 24.7778 17.6783ZM27.8334 22.5501C27.8334 22.9808 27.6724 23.3939 27.3859 23.6984C27.0994 24.003 26.7108 24.174 26.3056 24.174C25.9004 24.174 25.5118 24.003 25.2253 23.6984C24.9388 23.3939 24.7778 22.9808 24.7778 22.5501C24.7778 22.1194 24.9388 21.7064 25.2253 21.4018C25.5118 21.0973 25.9004 20.9262 26.3056 20.9262C26.7108 20.9262 27.0994 21.0973 27.3859 21.4018C27.6724 21.7064 27.8334 22.1194 27.8334 22.5501Z" fill="#0B95FF"/>
<path d="M18.6667 7.12277V5.49884C18.6667 5.06815 18.8277 4.65509 19.1142 4.35055C19.4007 4.046 19.7893 3.87491 20.1945 3.87491H21.7223C22.1274 3.87491 22.516 3.70382 22.8026 3.39927C23.0891 3.09472 23.25 2.68167 23.25 2.25098V0.627045M33.9445 20.1142C33.9445 24.6612 33.9445 26.9347 33.1118 28.6723C32.3795 30.2001 31.2109 31.4422 29.7736 32.2206C28.1389 33.1057 26 33.1057 21.7223 33.1057H15.6111C11.3334 33.1057 9.19447 33.1057 7.55975 32.2206C6.12246 31.4422 4.95391 30.2001 4.22156 28.6723C3.38892 26.9347 3.38892 24.6612 3.38892 20.1142C3.38892 15.5672 3.38892 13.2937 4.22156 11.5561C4.95391 10.0284 6.12246 8.78626 7.55975 8.00781C9.19447 7.12277 11.3334 7.12277 15.6111 7.12277H21.7223C26 7.12277 28.1389 7.12277 29.7736 8.00781C31.2109 8.78626 32.3795 10.0284 33.1118 11.5561C33.3991 12.157 33.587 12.8195 33.7107 13.6185" stroke="white" stroke-width="4" stroke-linecap="round"/>
</g>
</svg>
