<svg width="30" height="32" viewBox="0 0 30 32" fill="none" xmlns="http://www.w3.org/2000/svg">
<path d="M1.66663 16.1912C1.66663 12.9471 1.66663 11.3258 2.35996 9.98226C3.05063 8.63729 4.31596 7.80395 6.84529 6.13443L9.51196 4.37562C12.1853 2.61114 13.5226 1.72961 15 1.72961C16.4773 1.72961 17.8133 2.61114 20.488 4.37562L23.1546 6.13443C25.684 7.80395 26.9493 8.63729 27.6413 9.98226C28.3333 11.3258 28.3333 12.9471 28.3333 16.1898V18.3469C28.3333 23.8741 28.3333 26.6392 26.7706 28.3569C25.2093 30.0746 22.6946 30.0746 17.6666 30.0746H12.3333C7.30529 30.0746 4.79063 30.0746 3.22929 28.3569C1.66663 26.6392 1.66663 23.8756 1.66663 18.3469V16.1912Z" stroke="white" stroke-width="2"/>
<path d="M15 20.1539V24.4056" stroke="white" stroke-width="2" stroke-linecap="round"/>
</svg>
