<svg width="300" height="300" viewBox="0 0 300 300" fill="none" xmlns="http://www.w3.org/2000/svg">
<circle cx="150" cy="150" r="150" fill="url(#paint0_linear_3_45)"/>
<path fill-rule="evenodd" clip-rule="evenodd" d="M175.727 213.324C167.555 216.639 158.819 218.339 150 218.333C121.56 218.333 97.1783 200.963 86.8873 176.247C87.2768 159.915 101.497 134.112 130.921 125.571C126.028 129.48 122.303 134.66 120.154 140.544C118.005 146.427 117.515 152.788 118.737 158.931C119.578 168.73 123.247 181.221 131.967 191.827C140.823 202.61 154.742 211.274 175.727 213.324ZM184.112 209.224C159.628 208.896 144.533 199.945 135.486 188.936C132.279 185.018 129.647 180.662 127.669 176.001C131.711 180.193 136.757 183.283 142.329 184.977C147.9 186.67 153.812 186.912 159.504 185.678C165.195 184.444 170.476 181.776 174.847 177.928C179.217 174.079 182.531 169.177 184.474 163.687C189.36 163.735 196.118 164.5 201.571 167.131C204.352 168.47 206.696 170.261 208.309 172.598C209.839 174.798 210.803 177.627 210.748 181.317C204.718 192.974 195.475 202.658 184.112 209.224ZM214.062 173.828C216.893 166.203 218.339 158.133 218.333 150C218.333 141.8 210.202 136.32 202.002 136.32H179.588V136.333H155.713C150.048 136.333 146.31 138.882 146.31 144.554C146.31 153.984 153.109 159.109 162.546 159.109H185.738L185.731 159.157C190.836 159.314 197.71 160.209 203.539 163.024C206.819 164.61 209.874 166.851 212.06 169.994C212.867 171.165 213.534 172.441 214.062 173.821M149.392 118.198L150.888 118.102H181.891C191.554 118.1 200.822 114.261 207.655 107.429C214.489 100.596 218.33 91.33 218.333 81.6667H150C112.259 81.6667 81.6667 112.259 81.6667 150C81.6667 155.76 82.3773 161.364 83.7167 166.707C89.197 145.538 110.811 119.223 149.392 118.198ZM163.646 143.167C163.646 142.562 163.886 141.983 164.314 141.555C164.741 141.128 165.321 140.888 165.925 140.888C166.529 140.888 167.109 141.128 167.537 141.555C167.964 141.983 168.204 142.562 168.204 143.167V145.442H170.479C171.084 145.442 171.664 145.682 172.091 146.11C172.518 146.537 172.758 147.117 172.758 147.721C172.758 148.325 172.518 148.905 172.091 149.333C171.664 149.76 171.084 150 170.479 150H168.204V152.275C168.172 152.858 167.918 153.407 167.494 153.808C167.07 154.209 166.509 154.433 165.925 154.433C165.341 154.433 164.78 154.209 164.356 153.808C163.932 153.407 163.678 152.858 163.646 152.275V150H161.371C160.766 150 160.187 149.76 159.759 149.333C159.332 148.905 159.092 148.325 159.092 147.721C159.092 147.117 159.332 146.537 159.759 146.11C160.187 145.682 160.766 145.442 161.371 145.442H163.646V143.167ZM200.095 143.167C200.095 143.771 199.855 144.351 199.428 144.778C199 145.205 198.421 145.446 197.816 145.446C197.212 145.446 196.632 145.205 196.205 144.778C195.777 144.351 195.537 143.771 195.537 143.167C195.537 142.562 195.777 141.983 196.205 141.555C196.632 141.128 197.212 140.888 197.816 140.888C198.421 140.888 199 141.128 199.428 141.555C199.855 141.983 200.095 142.562 200.095 143.167ZM195.537 147.724C195.537 148.33 195.297 148.91 194.869 149.338C194.441 149.766 193.86 150.007 193.255 150.007C192.65 150.007 192.069 149.766 191.641 149.338C191.213 148.91 190.973 148.33 190.973 147.724C190.973 147.119 191.213 146.539 191.641 146.111C192.069 145.683 192.65 145.442 193.255 145.442C193.86 145.442 194.441 145.683 194.869 146.111C195.297 146.539 195.537 147.119 195.537 147.724ZM202.371 150C202.975 150 203.555 149.76 203.982 149.333C204.409 148.905 204.65 148.325 204.65 147.721C204.65 147.117 204.409 146.537 203.982 146.11C203.555 145.682 202.975 145.442 202.371 145.442C201.766 145.442 201.187 145.682 200.759 146.11C200.332 146.537 200.092 147.117 200.092 147.721C200.092 148.325 200.332 148.905 200.759 149.333C201.187 149.76 201.766 150 202.371 150ZM200.095 152.275C200.095 152.881 199.855 153.461 199.427 153.889C198.999 154.317 198.418 154.558 197.813 154.558C197.208 154.558 196.627 154.317 196.199 153.889C195.771 153.461 195.53 152.881 195.53 152.275C195.53 151.67 195.771 151.09 196.199 150.662C196.627 150.234 197.208 149.993 197.813 149.993C198.418 149.993 198.999 150.234 199.427 150.662C199.855 151.09 200.095 151.67 200.095 152.275Z" fill="white"/>
<defs>
<linearGradient id="paint0_linear_3_45" x1="236" y1="150" x2="-4.99999" y2="151.5" gradientUnits="userSpaceOnUse">
<stop stop-color="#14144B"/>
<stop offset="1" stop-color="#79109D"/>
</linearGradient>
</defs>
</svg>
