<?xml version="1.0" standalone="no"?>
<!DOCTYPE svg PUBLIC "-//W3C//DTD SVG 20010904//EN"
 "http://www.w3.org/TR/2001/REC-SVG-20010904/DTD/svg10.dtd">
<svg version="1.0" xmlns="http://www.w3.org/2000/svg"
 width="594.000000pt" height="420.000000pt" viewBox="0 0 594.000000 420.000000"
 preserveAspectRatio="xMidYMid meet">

<g transform="translate(0.000000,420.000000) scale(0.100000,-0.100000)"
fill="#FFFFFF" stroke="none">
<path d="M1051 3008 c-5 -18 -26 -91 -46 -163 -20 -71 -43 -149 -51 -173 -8
-23 -14 -47 -14 -52 0 -7 344 -9 957 -8 l957 3 12 45 c14 53 93 337 100 363 5
16 -45 17 -950 17 l-954 0 -11 -32z"/>
<path d="M3545 3024 c-113 -22 -222 -81 -308 -166 -83 -82 -116 -139 -171
-296 -76 -219 -97 -445 -49 -537 27 -51 67 -89 118 -112 37 -17 94 -18 751
-23 800 -6 751 0 739 -79 -12 -80 -44 -166 -71 -192 l-26 -24 -1700 -3 c-1575
-2 -1703 -1 -1720 14 -26 25 -23 78 13 188 l32 96 736 2 735 3 53 190 c29 105
55 200 59 213 l6 22 -943 0 -944 0 -114 -403 c-132 -464 -138 -501 -86 -595
34 -63 91 -104 190 -135 l70 -22 1790 0 c1703 0 1793 1 1854 18 143 41 261
114 319 199 84 123 164 324 192 484 18 101 9 248 -17 299 -29 54 -78 99 -138
127 l-50 23 -697 3 -697 3 -21 26 c-47 60 -7 212 67 251 16 9 239 12 850 12
l828 0 53 198 c30 108 56 205 59 215 5 16 -40 17 -843 16 -679 -1 -863 -4
-919 -15z"/>
</g>
</svg>
