<svg width="30" height="33" viewBox="0 0 30 33" fill="none" xmlns="http://www.w3.org/2000/svg">
<path fill-rule="evenodd" clip-rule="evenodd" stroke-width="4" d="M14.9999 10.7249C13.5342 10.7249 12.1285 11.3108 11.0921 12.3539C10.0558 13.3969 9.47351 14.8116 9.47351 16.2867C9.47351 17.7618 10.0558 19.1765 11.0921 20.2196C12.1285 21.2626 13.5342 21.8486 14.9999 21.8486C16.4656 21.8486 17.8712 21.2626 18.9076 20.2196C19.944 19.1765 20.5262 17.7618 20.5262 16.2867C20.5262 14.8116 19.944 13.3969 18.9076 12.3539C17.8712 11.3108 16.4656 10.7249 14.9999 10.7249ZM11.6841 16.2867C11.6841 15.4017 12.0334 14.5529 12.6552 13.927C13.2771 13.3012 14.1205 12.9496 14.9999 12.9496C15.8793 12.9496 16.7227 13.3012 17.3445 13.927C17.9663 14.5529 18.3157 15.4017 18.3157 16.2867C18.3157 17.1718 17.9663 18.0206 17.3445 18.6464C16.7227 19.2723 15.8793 19.6239 14.9999 19.6239C14.1205 19.6239 13.2771 19.2723 12.6552 18.6464C12.0334 18.0206 11.6841 17.1718 11.6841 16.2867Z" fill="white" fill-opacity="1"/>
<path fill-rule="evenodd" clip-rule="evenodd" d="M14.9632 0.342651C14.3074 0.342651 13.7606 0.342651 13.3126 0.372315C12.8547 0.391506 12.4031 0.486723 11.976 0.654117C11.4841 0.858927 11.0372 1.15924 10.6607 1.53792C10.2842 1.91659 9.98547 2.3662 9.78164 2.86107C9.56795 3.38018 9.51048 3.92895 9.4869 4.52519C9.48454 4.74324 9.42719 4.95712 9.32021 5.14676C9.21324 5.3364 9.06015 5.49559 8.87532 5.60938C8.68504 5.71395 8.47147 5.76813 8.25467 5.76683C8.03788 5.76553 7.82497 5.7088 7.63594 5.60196C7.1113 5.32313 6.61025 5.09917 6.05614 5.02501C5.52847 4.95516 4.9923 4.99059 4.47824 5.12928C3.96418 5.26798 3.4823 5.50722 3.06011 5.83334C2.70314 6.12238 2.39594 6.46864 2.15084 6.85821C1.90031 7.23493 1.6262 7.71103 1.29904 8.28205L1.2622 8.34731C0.933566 8.91833 0.660932 9.39443 0.463457 9.80081C0.257139 10.225 0.0950324 10.6433 0.0360845 11.106C-0.104506 12.1783 0.183866 13.2629 0.837776 14.1213C1.1782 14.5677 1.62178 14.8925 2.12284 15.2099C2.30964 15.3211 2.46528 15.4782 2.57511 15.6666C2.68493 15.855 2.74534 16.0684 2.75063 16.2867C2.74534 16.505 2.68493 16.7184 2.57511 16.9068C2.46528 17.0952 2.30964 17.2523 2.12284 17.3635C1.62178 17.6809 1.17967 18.0057 0.837776 18.4521C0.513734 18.877 0.276024 19.362 0.138216 19.8794C0.000408858 20.3967 -0.0347962 20.9364 0.0346109 21.4674C0.0950325 21.9302 0.255665 22.3484 0.461983 22.7726C0.660932 23.179 0.933566 23.6551 1.2622 24.2261L1.29904 24.2914C1.6262 24.8624 1.90031 25.3385 2.15084 25.7152C2.41168 26.1053 2.69169 26.4568 3.06011 26.7386C3.48219 27.065 3.96402 27.3045 4.47808 27.4434C4.99215 27.5824 5.52837 27.618 6.05614 27.5484C6.61025 27.4742 7.1113 27.2518 7.63594 26.9715C7.82475 26.8647 8.0374 26.8081 8.25394 26.8068C8.47048 26.8055 8.68379 26.8596 8.87384 26.964C9.0597 27.0769 9.21375 27.2359 9.32132 27.4256C9.42889 27.6154 9.4864 27.8298 9.48837 28.0482C9.51048 28.6445 9.56795 29.1932 9.78311 29.7123C9.98662 30.2074 10.285 30.6572 10.6613 31.0361C11.0375 31.415 11.4843 31.7156 11.976 31.9208C12.4033 32.0988 12.8455 32.1685 13.3126 32.1996C13.7606 32.2308 14.3074 32.2308 14.9632 32.2308H15.0368C15.6926 32.2308 16.2394 32.2308 16.6874 32.2011C17.156 32.1685 17.5967 32.0988 18.024 31.9193C18.5159 31.7145 18.9628 31.4142 19.3393 31.0355C19.7158 30.6568 20.0145 30.2072 20.2184 29.7123C20.432 29.1932 20.4895 28.6445 20.5131 28.0482C20.5152 27.8299 20.5724 27.6157 20.6794 27.4258C20.7864 27.2359 20.9396 27.0765 21.1247 26.9626C21.3151 26.8582 21.5287 26.8043 21.7455 26.8058C21.9623 26.8074 22.1752 26.8644 22.3641 26.9715C22.8887 27.2503 23.3898 27.4742 23.9439 27.5469C25.0093 27.6884 26.087 27.3982 26.9399 26.7401C27.3083 26.4553 27.5883 26.1053 27.8492 25.7152C28.0997 25.3385 28.3738 24.8624 28.701 24.2914L28.7378 24.2261C29.0664 23.6551 29.3391 23.179 29.5365 22.7726C29.7429 22.3484 29.905 21.9287 29.9639 21.4674C30.1045 20.3951 29.8161 19.3105 29.1622 18.4521C28.8218 18.0057 28.3782 17.6809 27.8772 17.3635C27.6904 17.2523 27.5347 17.0952 27.4249 16.9068C27.3151 16.7184 27.2547 16.505 27.2494 16.2867C27.2494 15.8744 27.4734 15.465 27.8772 15.2099C28.3782 14.8925 28.8203 14.5677 29.1622 14.1213C29.4863 13.6964 29.724 13.2114 29.8618 12.694C29.9996 12.1767 30.0348 11.6371 29.9654 11.106C29.8953 10.6502 29.7509 10.2092 29.538 9.80081C29.2864 9.30803 29.0195 8.82329 28.7378 8.34731L28.701 8.28205C28.4318 7.79867 28.1477 7.32382 27.8492 6.85821C27.6041 6.46905 27.2969 6.12328 26.9399 5.83482C26.5178 5.50844 26.036 5.26893 25.5219 5.12999C25.0079 4.99104 24.4716 4.95537 23.9439 5.02501C23.3898 5.09917 22.8887 5.32165 22.3641 5.60196C22.1752 5.70854 21.9626 5.76512 21.7461 5.76642C21.5295 5.76772 21.3163 5.71368 21.1262 5.60938C20.9408 5.49594 20.7871 5.33692 20.6796 5.14725C20.5721 4.95759 20.5143 4.74352 20.5116 4.52519C20.4895 3.92895 20.432 3.38018 20.2169 2.86107C20.0134 2.36606 19.715 1.91625 19.3387 1.53732C18.9625 1.1584 18.5157 0.857776 18.024 0.652633C17.5967 0.474653 17.1545 0.404944 16.6874 0.373798C16.2394 0.342651 15.6926 0.342651 15.0368 0.342651H14.9632ZM12.8219 2.7083C12.9354 2.66084 13.1078 2.61783 13.4629 2.59262C13.8269 2.5674 14.2985 2.5674 15 2.5674C15.7015 2.5674 16.1731 2.5674 16.5371 2.59262C16.8922 2.61783 17.0646 2.66084 17.1781 2.7083C17.6305 2.89667 17.9887 3.25708 18.1758 3.71241C18.2348 3.85479 18.2834 4.07875 18.3026 4.60824C18.3468 5.78291 18.9495 6.91457 20.0194 7.53602C21.0893 8.15895 22.3641 8.11742 23.3971 7.56865C23.8628 7.32096 24.0794 7.25125 24.2327 7.23197C24.7169 7.16757 25.2067 7.29935 25.5944 7.59831C25.6917 7.67395 25.8155 7.80299 26.0144 8.09962C26.2193 8.40515 26.455 8.81599 26.8058 9.42706C27.1565 10.0381 27.3908 10.4504 27.5515 10.7797C27.7092 11.1016 27.7578 11.2736 27.7725 11.3967C27.8365 11.884 27.7056 12.377 27.4085 12.7671C27.3142 12.8903 27.1462 13.0445 26.7012 13.3263C25.7108 13.9522 25.0388 15.0438 25.0388 16.2867C25.0388 17.5296 25.7108 18.6212 26.7012 19.2471C27.1462 19.5289 27.3142 19.6832 27.4085 19.8063C27.7062 20.1963 27.8359 20.6887 27.7725 21.1767C27.7578 21.2998 27.7077 21.4733 27.5515 21.7937C27.3908 22.1245 27.1565 22.5353 26.8058 23.1464C26.455 23.7574 26.2178 24.1683 26.0144 24.4738C25.8155 24.7704 25.6917 24.8995 25.5944 24.9751C25.2067 25.2741 24.7169 25.4058 24.2327 25.3414C24.0794 25.3222 23.8643 25.2525 23.3971 25.0048C22.3655 24.456 21.0893 24.4145 20.0194 25.0359C18.9495 25.6588 18.3468 26.7905 18.3026 27.9652C18.2834 28.4947 18.2348 28.7186 18.1758 28.861C18.0832 29.0861 17.9475 29.2907 17.7763 29.463C17.6051 29.6353 17.4018 29.7719 17.1781 29.8651C17.0646 29.9126 16.8922 29.9556 16.5371 29.9808C16.1731 30.006 15.7015 30.006 15 30.006C14.2985 30.006 13.8269 30.006 13.4629 29.9808C13.1078 29.9556 12.9354 29.9126 12.8219 29.8651C12.5982 29.7719 12.3949 29.6353 12.2237 29.463C12.0525 29.2907 11.9168 29.0861 11.8242 28.861C11.7652 28.7186 11.7166 28.4947 11.6974 27.9652C11.6532 26.7905 11.0505 25.6588 9.98059 25.0374C8.91069 24.4145 7.63594 24.456 6.60288 25.0048C6.13719 25.2525 5.92056 25.3222 5.76729 25.3414C5.28309 25.4058 4.79329 25.2741 4.40559 24.9751C4.30833 24.8995 4.18454 24.7704 3.98559 24.4738C3.70841 24.0395 3.44449 23.5969 3.19422 23.1464C2.84348 22.5353 2.60916 22.123 2.44853 21.7937C2.29084 21.4719 2.24221 21.2998 2.22747 21.1767C2.16349 20.6894 2.29442 20.1965 2.59147 19.8063C2.68579 19.6832 2.85379 19.5289 3.29885 19.2471C4.28917 18.6212 4.96118 17.5296 4.96118 16.2867C4.96118 15.0438 4.28917 13.9522 3.29885 13.3263C2.85379 13.0445 2.68579 12.8903 2.59147 12.7671C2.29442 12.377 2.16349 11.884 2.22747 11.3967C2.24221 11.2736 2.29231 11.1001 2.44853 10.7797C2.60916 10.449 2.84348 10.0381 3.19422 9.42706C3.54496 8.81599 3.78222 8.40515 3.98559 8.09962C4.18454 7.80299 4.30833 7.67395 4.40559 7.59831C4.79329 7.29935 5.28309 7.16757 5.76729 7.23197C5.92056 7.25125 6.13572 7.32096 6.60288 7.56865C7.63446 8.11742 8.91069 8.15895 9.98059 7.53602C11.0505 6.91457 11.6532 5.78291 11.6974 4.60824C11.7166 4.07875 11.7652 3.85479 11.8242 3.71241C12.0113 3.25708 12.3695 2.89667 12.8219 2.7083Z" fill="white" fill-opacity="1" stroke-width="4"/>
</svg>
