<svg width="135" height="128" viewBox="0 0 135 128" fill="none" xmlns="http://www.w3.org/2000/svg">
<path d="M26.2466 93.6228C40.7422 93.6228 52.4932 81.8718 52.4932 67.3762C52.4932 52.8806 40.7422 41.1296 26.2466 41.1296C11.751 41.1296 0 52.8806 0 67.3762C0 81.8718 11.751 93.6228 26.2466 93.6228Z" fill="url(#paint0_linear_2_3)"/>
<path fill-rule="evenodd" clip-rule="evenodd" d="M26.2466 41.1296C40.7324 41.1296 52.4932 52.8905 52.4932 67.3762C52.4932 81.862 40.7324 93.6228 26.2466 93.6228C11.7608 93.6228 0 81.862 0 67.3762C0 52.8905 11.7608 41.1296 26.2466 41.1296ZM26.2466 42.7696C39.8271 42.7696 50.8532 53.7957 50.8532 67.3762C50.8532 80.9567 39.8271 91.9816 26.2466 91.9816C12.6661 91.9816 1.64123 80.9567 1.64123 67.3762C1.64123 53.7957 12.6661 42.7696 26.2466 42.7696Z" fill="url(#paint1_linear_2_3)"/>
<path d="M26.2465 87.0605C37.1179 87.0605 45.9308 78.2475 45.9308 67.3762C45.9308 56.5049 37.1179 47.6919 26.2465 47.6919C15.3752 47.6919 6.56226 56.5049 6.56226 67.3762C6.56226 78.2475 15.3752 87.0605 26.2465 87.0605Z" fill="#4DCAED"/>
<path d="M26.2466 85.4206C36.2122 85.4206 44.2909 77.3418 44.2909 67.3762C44.2909 57.4106 36.2122 49.3318 26.2466 49.3318C16.2809 49.3318 8.20221 57.4106 8.20221 67.3762C8.20221 77.3418 16.2809 85.4206 26.2466 85.4206Z" fill="url(#paint2_linear_2_3)"/>
<path d="M26.2466 80.9098C33.721 80.9098 39.7802 74.8506 39.7802 67.3762C39.7802 59.9018 33.721 53.8426 26.2466 53.8426C18.7722 53.8426 12.713 59.9018 12.713 67.3762C12.713 74.8506 18.7722 80.9098 26.2466 80.9098Z" fill="#B7BDD2"/>
<path fill-rule="evenodd" clip-rule="evenodd" d="M57.6656 19.36C58.399 19.8106 59.0568 20.2965 59.6143 20.8136C66.5699 27.2704 70.01 33.6087 71.9391 42.4218C73.6428 50.2085 74.4609 53.9794 70.3682 56.819C64.8441 60.6524 76.2701 77.0321 78.4988 81.7721C75.5537 85.5495 71.7138 85.4675 69.6844 86.5147C68.559 87.0944 69.024 89.2423 69.2063 90.8965C69.3848 92.5156 70.8762 93.5342 70.0582 94.7886C69.3249 95.9127 66.5543 95.9935 65.3507 96.7672C66.5087 98.0424 69.0839 99.3215 68.7452 100.98C68.4847 102.26 65.5956 102.035 64.4832 104.95C63.8867 106.512 64.1941 109.409 62.9619 110.871C61.0966 113.083 59.174 114.096 56.4126 114.35C54.9355 114.508 53.4414 114.353 52.0282 113.893C47.4366 112.384 43.1682 110.212 39.3191 107.507C40.8965 107.771 42.612 108.019 44.4199 108.219C49.6614 108.802 52.2952 108.299 54.8117 105.313C55.8955 104.028 55.6245 101.481 56.1495 100.107C57.1277 97.5448 59.6677 97.7428 59.8969 96.6161C60.1952 95.1585 57.9314 94.0344 56.9128 92.9116C57.9704 92.233 60.4075 92.1613 61.0523 91.1727C61.7713 90.0694 60.4596 89.1746 60.3033 87.7496C60.1431 86.2959 59.7328 84.4072 60.7228 83.8979C62.5073 82.977 65.8835 83.0499 68.473 79.7284C66.5139 75.5602 56.4673 61.1578 61.3245 57.7868C64.9235 55.2911 64.2032 51.9748 62.7053 45.1285C61.0093 37.3796 57.9835 31.8059 51.868 26.1281C50.5485 24.9037 48.592 23.8798 46.4115 23.1283C49.9623 21.4349 53.7371 20.1597 57.6656 19.36Z" fill="url(#paint3_linear_2_3)"/>
<path fill-rule="evenodd" clip-rule="evenodd" d="M68.7478 18.4C69.7859 18.4286 70.8293 18.4898 71.8766 18.5849C98.8096 21.0311 118.689 44.8836 116.243 71.8153C113.987 96.6578 93.5186 115.501 69.218 116.355C69.5658 116.082 69.898 115.786 70.2119 115.463C72.2895 113.325 72.6854 110.754 73.0449 108.129C73.2325 106.799 74.2342 106.699 75.0887 106.207C78.7957 104.068 77.2223 99.13 77.2223 99.13C78.3047 98.3029 79.0797 97.0915 79.3142 95.7629C79.645 93.8885 78.375 92.2812 78.108 90.128C78.6238 89.9821 79.1396 89.8337 79.6489 89.6669C83.8171 88.3005 89.5275 84.9855 87.3679 80.5047C84.9699 75.5302 81.6405 70.8306 79.4575 65.662C78.6043 63.6431 77.6326 61.6046 77.9621 59.7406C82.0248 56.8164 82.8689 52.0672 82.284 47.7701C80.7405 36.4013 76.4029 26.1098 68.7478 18.4Z" fill="#D1D1E0"/>
<path fill-rule="evenodd" clip-rule="evenodd" d="M80.0397 25.6227C86.6345 28.0949 92.681 31.8606 97.5513 36.8937C106.831 46.4858 112.351 60.4284 109.674 73.4253C107.141 85.7293 96.4597 95.9817 89.3829 99.1392C85.995 100.651 83.2479 100.43 83.2661 100.018C83.2844 99.6068 83.7142 98.7432 85.8361 96.1862C93.4274 87.0319 97.8978 73.6624 91.2261 63.2224C89.874 61.1044 88.2158 59.3147 86.3441 57.7881C87.8459 54.9602 88.1038 51.6322 87.6818 48.5191C86.5512 40.1996 84.062 32.4064 80.0397 25.6227Z" fill="url(#paint4_linear_2_3)"/>
<path fill-rule="evenodd" clip-rule="evenodd" d="M66.2808 0.0104218C42.44 13.0178 26.2466 38.3213 26.2466 67.3762C26.2466 71.9769 26.653 76.4837 27.4306 80.8577C27.0412 80.8916 26.6465 80.9098 26.2466 80.9098C18.7777 80.9098 12.713 74.8451 12.713 67.3762C12.713 44.9305 20.927 24.3891 34.5127 8.59429C43.938 3.29939 54.7596 0.205806 66.2808 0.0104218Z" fill="url(#paint5_linear_2_3)"/>
<path fill-rule="evenodd" clip-rule="evenodd" d="M34.5113 8.59429C44.2545 3.12093 55.4878 0 67.4453 0C104.635 0 134.828 30.1933 134.828 67.384C134.828 103.396 102.123 136.619 53.4987 125.986L53.388 125.892C82.4807 128.985 103.925 117.135 115.551 99.8217L115.622 99.7162C121.839 90.4771 125.469 79.3507 125.469 67.384V67.3762C125.464 35.3541 99.4661 9.35889 67.4453 9.35889C46.4766 9.35889 28.091 20.5049 17.8959 37.1907C21.6564 26.6113 27.3355 16.9385 34.5113 8.59429Z" fill="#94A2C1"/>
<path fill-rule="evenodd" clip-rule="evenodd" d="M67.4452 0C104.635 0 134.828 30.1933 134.828 67.384C134.828 81.8177 129.575 95.8033 120.145 106.698C128.345 95.7277 133.202 82.1186 133.202 67.384C133.202 31.0908 103.737 1.6256 67.4452 1.6256C54.1578 1.6256 41.7861 5.57496 31.4451 12.36C32.4337 11.077 33.4562 9.8213 34.5113 8.59429C38.6196 6.28746 42.9923 4.39744 47.5721 2.98286L47.5916 2.97765L48.0866 2.82656L48.0931 2.82525L48.6024 2.67416L49.1117 2.52827L49.1273 2.52436L49.6041 2.3915L49.6549 2.37717L50.1485 2.24431C50.3205 2.20002 50.4937 2.15443 50.6669 2.10885L51.1554 1.9864L51.227 1.96817L51.6686 1.86006L51.7285 1.84573L52.2313 1.72719L52.7328 1.61387L52.8044 1.59824L53.2291 1.50576L53.3268 1.48492L53.7801 1.38983L53.8191 1.38071L54.331 1.27781L54.3701 1.27L54.8195 1.18272L54.9341 1.16188L55.3327 1.08764L55.4382 1.0694L55.9358 0.980828L56.4334 0.897464L56.5467 0.879228L56.9336 0.816705L57.0677 0.795864L57.4806 0.733342L57.564 0.720316L58.0655 0.648675L58.1515 0.636952L58.5618 0.582245L58.7063 0.562706L59.0776 0.515814L59.213 0.498881L59.7106 0.440266L60.2082 0.385558L60.3489 0.369928L60.7149 0.333456L60.8712 0.317825L61.2633 0.281354L61.3727 0.270933L61.8716 0.227948L61.9823 0.21883L62.3744 0.188872L62.5359 0.177149L62.8967 0.1524L63.0465 0.141979L63.548 0.110718L64.0508 0.0846671L64.2032 0.0768511L64.564 0.0612202L64.7294 0.0547073L65.1189 0.0403795L65.2387 0.0351697L65.7415 0.0208407L65.8613 0.0182358L66.2521 0.010421L66.4188 0.00781604L66.7809 0.00390802L66.9372 0.00260493L67.4452 0Z" fill="#B7BDD2"/>
<defs>
<linearGradient id="paint0_linear_2_3" x1="26.247" y1="93.6224" x2="26.247" y2="41.1292" gradientUnits="userSpaceOnUse">
<stop stop-color="#4B69B6"/>
<stop offset="1" stop-color="#435EA5"/>
</linearGradient>
<linearGradient id="paint1_linear_2_3" x1="26.247" y1="93.6224" x2="26.247" y2="41.1292" gradientUnits="userSpaceOnUse">
<stop stop-color="#5773BB"/>
<stop offset="1" stop-color="#3A5290"/>
</linearGradient>
<linearGradient id="paint2_linear_2_3" x1="26.247" y1="85.4203" x2="26.247" y2="49.3313" gradientUnits="userSpaceOnUse">
<stop stop-color="#22B2E7"/>
<stop offset="1" stop-color="#177A9E"/>
</linearGradient>
<linearGradient id="paint3_linear_2_3" x1="60.905" y1="112.803" x2="60.905" y2="18.3816" gradientUnits="userSpaceOnUse">
<stop stop-color="#4B69B6"/>
<stop offset="1" stop-color="#435EA5"/>
</linearGradient>
<linearGradient id="paint4_linear_2_3" x1="87.8406" y1="100.322" x2="87.8406" y2="29.3193" gradientUnits="userSpaceOnUse">
<stop stop-color="#A7B1CD"/>
<stop offset="0.46" stop-color="#C8CBDC"/>
<stop offset="1" stop-color="#D1D2E0"/>
</linearGradient>
<linearGradient id="paint5_linear_2_3" x1="27.4306" y1="80.858" x2="52.804" y2="1.59824" gradientUnits="userSpaceOnUse">
<stop stop-color="#B7BDD2"/>
<stop offset="1" stop-color="#607BB6"/>
</linearGradient>
</defs>
</svg>
